<svg width="536" height="399" viewBox="0 0 536 399" fill="none" xmlns="http://www.w3.org/2000/svg">
<path fill-rule="evenodd" clip-rule="evenodd" d="M107.063 70.2227C108.946 68.4131 111 66.4389 111 63.4118C111 59.3184 107.866 56 104 56C100.134 56 97 59.3184 97 63.4118C97 65.7845 98.8721 67.7326 100.68 69.6138C102.368 71.3703 104 73.0686 104 75C104 73.1668 105.47 71.7537 107.063 70.2227ZM104 66C105.657 66 107 64.6569 107 63C107 61.3431 105.657 60 104 60C102.343 60 101 61.3431 101 63C101 64.6569 102.343 66 104 66Z" fill="#D9D9D9"/>
<path fill-rule="evenodd" clip-rule="evenodd" d="M210.063 111.223C211.946 109.413 214 107.439 214 104.412C214 100.318 210.866 97 207 97C203.134 97 200 100.318 200 104.412C200 106.785 201.872 108.733 203.68 110.614C205.368 112.37 207 114.069 207 116C207 114.167 208.47 112.754 210.063 111.223ZM207 107C208.657 107 210 105.657 210 104C210 102.343 208.657 101 207 101C205.343 101 204 102.343 204 104C204 105.657 205.343 107 207 107Z" fill="#D9D9D9"/>
<path fill-rule="evenodd" clip-rule="evenodd" d="M452.251 24.3818C455.479 21.2796 459 17.8953 459 12.7059C459 5.68862 453.627 0 447 0C440.373 0 435 5.68862 435 12.7059C435 16.7735 438.209 20.113 441.308 23.3379C444.202 26.3491 447 29.2604 447 32.5714C447 29.4288 449.52 27.0063 452.251 24.3818ZM447 17.1431C449.841 17.1431 452.143 14.8406 452.143 12.0003C452.143 9.15996 449.841 6.85742 447 6.85742C444.16 6.85742 441.857 9.15996 441.857 12.0003C441.857 14.8406 444.16 17.1431 447 17.1431Z" fill="#D9D9D9"/>
<circle cx="104.142" cy="220.601" r="144.642" stroke="#8D8D8D" stroke-opacity="0.6" stroke-dasharray="3 3"/>
<circle cx="291.223" cy="88.9518" r="4.74083" fill="white"/>
<circle cx="394" cy="257" r="231.5" stroke="#8D8D8D" stroke-opacity="0.6" stroke-dasharray="3 3"/>
</svg>
