<svg width="27" height="23" viewBox="0 0 27 23" fill="none" xmlns="http://www.w3.org/2000/svg">
<path d="M26.0941 12.4345L16.536 22.1106C16.2331 22.4109 15.8257 22.5795 15.4079 22.5795C14.9848 22.5795 14.5774 22.4109 14.2744 22.1106C14.1282 21.9605 14.0081 21.7829 13.9298 21.5868C13.8514 21.3907 13.8096 21.1803 13.8096 20.9683C13.8096 20.7558 13.8514 20.5459 13.9298 20.3498C14.0081 20.1537 14.1282 19.9756 14.2744 19.826L21.1165 12.9044H1.59823C1.17517 12.9044 0.76784 12.7347 0.47013 12.4323C0.172419 12.13 0 11.7198 0 11.2921C0 10.864 0.172419 10.4538 0.47013 10.1514C0.76784 9.84904 1.17517 9.67935 1.59823 9.67935H21.1165L14.2744 2.75776C13.9767 2.45487 13.8096 2.04414 13.8096 1.61544C13.8096 1.40347 13.8514 1.19361 13.9298 0.997492C14.0133 0.801379 14.1282 0.623231 14.2744 0.473107C14.4259 0.32351 14.6035 0.204572 14.7968 0.123167C14.99 0.041761 15.1937 0 15.4079 0C15.8309 0 16.2331 0.170214 16.536 0.473107L26.0941 10.1498C26.2455 10.2994 26.3604 10.4776 26.444 10.6737C26.5224 10.8693 26.5641 11.0796 26.5641 11.2921C26.5641 11.5041 26.5224 11.7145 26.444 11.9106C26.3604 12.1062 26.2455 12.2843 26.0941 12.4345Z" fill="#F4FA01"/>
</svg>
