<svg width="421" height="270" viewBox="0 0 421 270" fill="none" xmlns="http://www.w3.org/2000/svg">
<g clip-path="url(#clip0_0_283)">
<mask id="mask0_0_283" style="mask-type:luminance" maskUnits="userSpaceOnUse" x="0" y="0" width="422" height="271">
<path d="M406.095 0H15.3727C6.88258 0 0 6.88675 0 15.382V255.085C0 263.58 6.88258 270.467 15.3727 270.467H406.095C414.585 270.467 421.468 263.58 421.468 255.085V15.382C421.468 6.88675 414.585 0 406.095 0Z" fill="white"/>
</mask>
<g mask="url(#mask0_0_283)">
<g filter="url(#filter0_d_0_283)">
<path d="M406.095 0H15.3727C6.88258 0 0 6.88675 0 15.382V255.085C0 263.58 6.88258 270.467 15.3727 270.467H406.095C414.585 270.467 421.468 263.58 421.468 255.085V15.382C421.468 6.88675 414.585 0 406.095 0Z" fill="#DADAD8"/>
</g>
<path d="M421.468 188.429H0V270.467H421.468V188.429Z" fill="black" fill-opacity="0.1"/>
<path d="M277.041 230.283C280.054 230.283 280.93 228.453 280.93 226.946C280.93 225.469 280.146 223.654 277.21 223.654H273.443V234.575H275.334V230.283H277.041ZM275.334 225.115H276.948C278.562 225.115 278.947 226.115 278.947 226.992C278.947 227.853 278.562 228.868 276.841 228.868H275.334V225.115Z" fill="black"/>
<path d="M287.989 223.654V228.253H284.453V223.654H282.562V234.575H284.453V229.76H287.989V234.575H289.88V223.654H287.989Z" fill="black"/>
<path d="M300.088 223.654H298.013L295.753 228.73L293.478 223.654H291.418L294.816 230.314V234.575H296.706V230.314L300.088 223.654Z" fill="black"/>
<path d="M305.347 234.836C307.961 234.836 309.252 233.236 309.252 231.545C309.252 229.514 307.93 228.807 306.408 228.391L304.963 227.991C304.071 227.73 303.456 227.207 303.456 226.392C303.456 225.684 303.887 224.93 305.224 224.93C306.254 224.93 307.254 225.423 307.576 226.93L309.175 226.099C308.775 224.207 307.223 223.392 305.24 223.392C303.041 223.392 301.55 224.792 301.55 226.607C301.55 228.268 302.672 229.222 304.287 229.653L305.747 230.053C306.608 230.283 307.33 230.591 307.33 231.791C307.33 232.944 306.285 233.267 305.409 233.267C303.918 233.267 303.18 232.314 302.857 231.083L301.166 231.667C301.642 233.544 303.026 234.836 305.347 234.836Z" fill="black"/>
<path d="M318.308 223.654H311.33V225.13H313.866V233.098H311.33V234.575H318.308V233.098H315.758V225.13H318.308V223.654Z" fill="black"/>
<path d="M324.334 234.836C326.857 234.836 328.224 233.236 328.378 230.929L326.504 230.576C326.41 232.329 325.704 233.267 324.413 233.267C322.968 233.267 322.259 231.991 322.259 229.606V228.514C322.259 226.115 322.936 224.961 324.413 224.961C325.689 224.961 326.41 225.915 326.504 227.637L328.394 227.345C328.195 224.653 326.766 223.392 324.429 223.392C321.692 223.392 320.322 225.361 320.322 228.545V229.683C320.322 232.867 321.645 234.836 324.334 234.836Z" fill="black"/>
<path d="M338.265 234.575L334.977 223.654H332.795L329.504 234.575H331.365L332.149 231.791H335.607L336.407 234.575H338.265ZM333.916 225.223C334.162 226.561 334.562 228.191 335.176 230.268H332.578C333.195 228.191 333.607 226.561 333.853 225.223H333.916Z" fill="black"/>
<path d="M340.267 234.575H347.108V232.975H342.157V223.654H340.267V234.575Z" fill="black"/>
<path d="M362.467 234.836C364.99 234.836 366.357 233.236 366.511 230.929L364.637 230.576C364.543 232.329 363.837 233.267 362.546 233.267C361.1 233.267 360.392 231.991 360.392 229.606V228.514C360.392 226.115 361.069 224.961 362.546 224.961C363.821 224.961 364.543 225.915 364.637 227.637L366.527 227.345C366.328 224.653 364.898 223.392 362.562 223.392C359.825 223.392 358.455 225.361 358.455 228.545V229.683C358.455 232.867 359.778 234.836 362.467 234.836Z" fill="black"/>
<path d="M376.399 234.575L373.108 223.654H370.926L367.635 234.575H369.496L370.28 231.791H373.738L374.538 234.575H376.399ZM372.047 225.223C372.293 226.561 372.692 228.191 373.307 230.268H370.708C371.326 228.191 371.738 226.561 371.987 225.223H372.047Z" fill="black"/>
<path d="M385.793 234.575L383.362 229.776C384.684 229.33 385.437 228.299 385.437 226.915C385.437 224.838 384.07 223.654 381.671 223.654H377.951V234.575H379.844V230.099H381.52L383.718 234.575H385.793ZM381.504 225.115C382.779 225.115 383.456 225.761 383.456 226.93C383.456 228.099 382.779 228.745 381.504 228.745H379.844V225.115H381.504Z" fill="black"/>
<path d="M390.835 234.575C393.603 234.575 395.37 232.298 395.37 229.037C395.37 225.838 393.742 223.654 390.866 223.654H387.377V234.575H390.835ZM389.267 225.161H390.744C392.542 225.161 393.433 226.761 393.433 229.037C393.433 231.36 392.482 233.068 390.712 233.068H389.267V225.161Z" fill="black"/>
<path d="M32.4082 228.96C32.4082 228.499 32.48 228.13 32.6236 227.853C32.7773 227.566 32.9823 227.361 33.2383 227.238C33.5048 227.115 33.797 227.053 34.1145 227.053C34.4322 227.053 34.7191 227.115 34.9755 227.238C35.2318 227.361 35.4365 227.566 35.5905 227.853C35.7442 228.13 35.821 228.499 35.821 228.96C35.821 229.412 35.7442 229.781 35.5905 230.068C35.4365 230.345 35.2318 230.55 34.9755 230.683C34.7191 230.806 34.4322 230.868 34.1145 230.868C33.797 230.868 33.5048 230.806 33.2383 230.683C32.9823 230.55 32.7773 230.345 32.6236 230.068C32.48 229.781 32.4082 229.412 32.4082 228.96Z" fill="black"/>
<path d="M38.1895 228.96C38.1895 228.499 38.2613 228.13 38.4045 227.853C38.5585 227.566 38.7632 227.361 39.0196 227.238C39.286 227.115 39.578 227.053 39.8957 227.053C40.2135 227.053 40.5004 227.115 40.7567 227.238C41.0128 227.361 41.2178 227.566 41.3715 227.853C41.5255 228.13 41.6023 228.499 41.6023 228.96C41.6023 229.412 41.5255 229.781 41.3715 230.068C41.2178 230.345 41.0128 230.55 40.7567 230.683C40.5004 230.806 40.2135 230.868 39.8957 230.868C39.578 230.868 39.286 230.806 39.0196 230.683C38.7632 230.55 38.5585 230.345 38.4045 230.068C38.2613 229.781 38.1895 229.412 38.1895 228.96Z" fill="black"/>
<path d="M43.9686 228.96C43.9686 228.499 44.0404 228.13 44.1837 227.853C44.3374 227.566 44.5424 227.361 44.7988 227.238C45.0652 227.115 45.3571 227.053 45.6749 227.053C45.9927 227.053 46.2795 227.115 46.5359 227.238C46.7919 227.361 46.9969 227.566 47.1506 227.853C47.3043 228.13 47.3812 228.499 47.3812 228.96C47.3812 229.412 47.3043 229.781 47.1506 230.068C46.9969 230.345 46.7919 230.55 46.5359 230.683C46.2795 230.806 45.9927 230.868 45.6749 230.868C45.3571 230.868 45.0652 230.806 44.7988 230.683C44.5424 230.55 44.3374 230.345 44.1837 230.068C44.0404 229.781 43.9686 229.412 43.9686 228.96Z" fill="black"/>
<path d="M49.748 228.96C49.748 228.499 49.8195 228.13 49.9631 227.853C50.1168 227.566 50.3218 227.361 50.5782 227.238C50.8446 227.115 51.1366 227.053 51.4543 227.053C51.7721 227.053 52.059 227.115 52.315 227.238C52.5714 227.361 52.7764 227.566 52.9301 227.853C53.0837 228.13 53.1606 228.499 53.1606 228.96C53.1606 229.412 53.0837 229.781 52.9301 230.068C52.7764 230.345 52.5714 230.55 52.315 230.683C52.059 230.806 51.7721 230.868 51.4543 230.868C51.1366 230.868 50.8446 230.806 50.5782 230.683C50.3218 230.55 50.1168 230.345 49.9631 230.068C49.8195 229.781 49.748 229.412 49.748 228.96Z" fill="black"/>
<path d="M70.4258 228.73C71.5633 228.33 72.132 227.53 72.132 226.376C72.132 224.684 70.7177 223.654 68.6269 223.654C66.4901 223.654 65.0758 224.807 65.0758 226.515C65.0758 227.807 65.66 228.576 66.767 229.084C65.3681 229.499 64.707 230.406 64.707 231.791C64.707 233.621 66.275 234.806 68.6578 234.806C71.0251 234.806 72.578 233.56 72.578 231.668C72.578 230.114 71.8401 229.284 70.4258 228.73ZM68.5809 224.992C69.6879 224.992 70.3335 225.576 70.3335 226.576C70.3335 227.407 69.9953 227.915 69.0728 228.33L68.5195 228.176C67.4434 227.838 66.9206 227.361 66.9206 226.515C66.9206 225.561 67.5508 224.992 68.5809 224.992ZM68.6886 233.375C67.4126 233.375 66.5824 232.637 66.5824 231.529C66.5824 230.576 67.0129 229.991 68.089 229.545L68.996 229.822C70.1181 230.176 70.7023 230.714 70.7023 231.637C70.7023 232.714 69.9338 233.375 68.6886 233.375Z" fill="black"/>
<path d="M81.7411 234.575V232.991H76.8374C77.8981 232.268 78.6974 231.606 79.5121 230.837C80.9418 229.468 81.5874 228.284 81.5874 226.899C81.5874 224.823 80.3117 223.654 78.0978 223.654C75.8841 223.654 74.5161 224.915 74.5161 226.838C74.5161 227.084 74.5315 227.315 74.5929 227.592L76.4683 227.776C76.4069 227.453 76.376 227.161 76.376 226.899C76.376 225.853 76.9911 225.207 78.0363 225.207C79.0665 225.207 79.6658 225.838 79.6658 226.946C79.6658 228.068 79.2356 228.899 78.0518 230.053C76.7911 231.283 75.4077 232.406 74.4238 233.129V234.575H81.7411Z" fill="black"/>
<path d="M87.709 223.654C85.1877 223.654 83.666 225.284 83.666 229.237C83.666 233.175 85.1877 234.806 87.709 234.806C90.23 234.806 91.752 233.175 91.752 229.237C91.752 225.284 90.23 223.654 87.709 223.654ZM87.709 225.115C88.416 225.115 88.9848 225.392 89.3693 226.099L85.6642 231.083C85.5723 230.576 85.526 229.96 85.526 229.237C85.5414 226.084 86.3561 225.115 87.709 225.115ZM87.709 233.344C86.9403 233.344 86.3561 233.037 85.9719 232.191L89.7227 227.192C89.8304 227.745 89.8918 228.407 89.8918 229.237C89.8763 232.36 89.0616 233.344 87.709 233.344Z" fill="black"/>
<path d="M98.4562 223.885H96.9496C96.5808 224.915 95.8429 225.623 94.2903 225.623H93.8598V227.315H94.3672C95.5047 227.315 96.2117 227.022 96.6268 226.607V232.975H93.7676V234.575H101.054V232.975H98.4562V223.885Z" fill="black"/>
<path d="M185.665 223.654H183.451V234.575H185.219V227.376C185.219 226.976 185.188 226.484 185.127 226.13H185.203C185.25 226.269 185.449 226.976 185.695 227.561L188.739 234.575H190.768V223.654H189V230.406C189 230.853 189.031 231.452 189.093 231.883H189.031C188.954 231.576 188.77 230.991 188.509 230.345L185.665 223.654Z" fill="black"/>
<path d="M194.273 231.114H198.993V229.483H194.273V231.114Z" fill="black"/>
<path d="M207.39 223.885H205.883C205.514 224.915 204.777 225.623 203.224 225.623H202.793V227.315H203.3C204.438 227.315 205.145 227.022 205.56 226.607V232.975H202.701V234.575H209.988V232.975H207.39V223.885Z" fill="black"/>
<path d="M43.2861 156.507C43.2959 155.618 42.9688 154.856 42.3047 154.222C41.6504 153.587 40.6055 153.035 39.1699 152.566C38.2617 152.283 37.4414 151.956 36.709 151.585C35.9766 151.214 35.3467 150.774 34.8193 150.267C34.3018 149.749 33.9014 149.158 33.6182 148.494C33.335 147.83 33.1934 147.063 33.1934 146.194C33.1934 145.374 33.3154 144.632 33.5596 143.968C33.8135 143.304 34.165 142.728 34.6143 142.239C35.0732 141.741 35.625 141.341 36.2695 141.038C36.9238 140.735 37.6465 140.535 38.4375 140.438V137.215H40.6201V140.438C42.2607 140.662 43.5352 141.355 44.4434 142.518C45.3516 143.67 45.8105 145.242 45.8203 147.234H43.125C43.125 146.58 43.042 145.979 42.876 145.433C42.7197 144.876 42.4854 144.402 42.1729 144.012C41.8701 143.611 41.4941 143.299 41.0449 143.074C40.5957 142.85 40.083 142.737 39.5068 142.737C38.3252 142.737 37.4316 143.045 36.8262 143.66C36.2207 144.275 35.9131 145.105 35.9033 146.15C35.9033 146.639 35.9814 147.073 36.1377 147.454C36.2939 147.835 36.5381 148.182 36.8701 148.494C37.2119 148.807 37.6465 149.1 38.1738 149.373C38.7109 149.637 39.3555 149.896 40.1074 150.149C41.0254 150.452 41.8506 150.789 42.583 151.16C43.3154 151.531 43.9355 151.966 44.4434 152.464C44.9512 152.962 45.3369 153.538 45.6006 154.192C45.874 154.847 46.0107 155.608 46.0107 156.478C46.0107 157.327 45.874 158.089 45.6006 158.763C45.3369 159.437 44.9609 160.018 44.4727 160.506C43.9844 160.984 43.3887 161.37 42.6855 161.663C41.9922 161.956 41.2207 162.146 40.3711 162.234V165.047H38.1885V162.249C37.4268 162.171 36.6943 161.995 35.9912 161.722C35.2979 161.448 34.6826 161.053 34.1455 160.535C33.6084 160.008 33.1787 159.349 32.8564 158.558C32.5342 157.767 32.373 156.819 32.373 155.716H35.083C35.083 156.536 35.2051 157.22 35.4492 157.767C35.6934 158.304 36.0059 158.733 36.3867 159.056C36.7773 159.378 37.2168 159.607 37.7051 159.744C38.1934 159.881 38.6865 159.949 39.1846 159.949C39.8193 159.949 40.3906 159.871 40.8984 159.715C41.4062 159.559 41.8359 159.334 42.1875 159.041C42.5391 158.738 42.8076 158.377 42.9932 157.957C43.1885 157.527 43.2861 157.044 43.2861 156.507Z" fill="black"/>
<path d="M63.6475 162H49.6729V160.052L56.6602 152.288C57.2852 151.595 57.8076 150.979 58.2275 150.442C58.6475 149.905 58.9844 149.412 59.2383 148.963C59.4922 148.504 59.6729 148.074 59.7803 147.674C59.8877 147.264 59.9414 146.844 59.9414 146.414C59.9414 145.887 59.8535 145.394 59.6777 144.935C59.5117 144.466 59.2627 144.061 58.9307 143.719C58.6084 143.377 58.2129 143.108 57.7441 142.913C57.2852 142.708 56.7627 142.605 56.1768 142.605C55.4639 142.605 54.8438 142.708 54.3164 142.913C53.7988 143.118 53.3643 143.411 53.0127 143.792C52.6709 144.163 52.4121 144.617 52.2363 145.154C52.0703 145.691 51.9873 146.292 51.9873 146.956H49.2627C49.2627 146.058 49.4189 145.213 49.7314 144.422C50.0439 143.621 50.4932 142.923 51.0791 142.327C51.6748 141.731 52.3975 141.258 53.2471 140.906C54.1064 140.555 55.083 140.379 56.1768 140.379C57.1826 140.379 58.0859 140.53 58.8867 140.833C59.6973 141.126 60.3809 141.536 60.9375 142.063C61.4941 142.591 61.9189 143.216 62.2119 143.938C62.5146 144.661 62.666 145.447 62.666 146.297C62.666 146.932 62.5586 147.562 62.3438 148.187C62.1289 148.802 61.8359 149.412 61.4648 150.018C61.1035 150.623 60.6787 151.224 60.1904 151.819C59.7119 152.405 59.2041 152.991 58.667 153.577L52.9395 159.788H63.6475V162Z" fill="black"/>
<path d="M69.5508 151.307L70.6201 140.672H81.5625V143.309H72.9053L72.3047 148.992C72.7246 148.748 73.2275 148.533 73.8135 148.348C74.3994 148.162 75.0781 148.069 75.8496 148.069C76.8359 148.069 77.7197 148.24 78.501 148.582C79.2822 148.924 79.9463 149.407 80.4932 150.032C81.04 150.647 81.46 151.395 81.7529 152.273C82.0459 153.152 82.1924 154.129 82.1924 155.203C82.1924 156.219 82.0557 157.161 81.7822 158.03C81.5088 158.899 81.0938 159.651 80.5371 160.286C79.9902 160.911 79.2969 161.404 78.457 161.766C77.6172 162.117 76.6309 162.293 75.498 162.293C74.6289 162.293 73.8086 162.171 73.0371 161.927C72.2656 161.683 71.5771 161.316 70.9717 160.828C70.376 160.34 69.8828 159.725 69.4922 158.982C69.1113 158.24 68.8721 157.376 68.7744 156.39H71.3525C71.5186 157.601 71.9629 158.519 72.6855 159.144C73.418 159.769 74.3555 160.081 75.498 160.081C76.1426 160.081 76.7139 159.969 77.2119 159.744C77.71 159.51 78.125 159.183 78.457 158.763C78.7988 158.333 79.0527 157.82 79.2188 157.225C79.3945 156.629 79.4824 155.965 79.4824 155.232C79.4824 154.568 79.3848 153.948 79.1895 153.372C79.0039 152.796 78.7305 152.298 78.3691 151.878C78.0078 151.448 77.5635 151.111 77.0361 150.867C76.5088 150.623 75.9033 150.501 75.2197 150.501C74.7705 150.501 74.3799 150.535 74.0479 150.604C73.7256 150.662 73.4326 150.75 73.1689 150.867C72.9053 150.984 72.6562 151.126 72.4219 151.292C72.1973 151.458 71.9629 151.648 71.7188 151.863L69.5508 151.307Z" fill="black"/>
<path d="M99.9902 153.841C99.9902 155.198 99.834 156.404 99.5215 157.459C99.209 158.504 98.7598 159.388 98.1738 160.11C97.5879 160.823 96.8701 161.365 96.0205 161.736C95.1709 162.107 94.1992 162.293 93.1055 162.293C92.0215 162.293 91.0498 162.107 90.1904 161.736C89.3408 161.365 88.6182 160.823 88.0225 160.11C87.4268 159.388 86.9678 158.504 86.6455 157.459C86.333 156.404 86.1768 155.198 86.1768 153.841V148.846C86.1768 147.488 86.333 146.287 86.6455 145.242C86.958 144.188 87.4072 143.299 87.9932 142.576C88.5889 141.854 89.3115 141.307 90.1611 140.936C91.0205 140.555 91.9922 140.364 93.0762 140.364C94.1699 140.364 95.1416 140.555 95.9912 140.936C96.8506 141.307 97.5732 141.854 98.1592 142.576C98.7549 143.299 99.209 144.188 99.5215 145.242C99.834 146.287 99.9902 147.488 99.9902 148.846V153.841ZM88.9014 153.299L97.207 146.927C97.0508 145.511 96.6357 144.437 95.9619 143.704C95.2979 142.962 94.3359 142.591 93.0762 142.591C91.6504 142.591 90.5957 143.074 89.9121 144.041C89.2383 144.998 88.9014 146.399 88.9014 148.245V153.299ZM97.2656 149.52L88.9746 155.862C89.1406 157.239 89.5654 158.289 90.249 159.012C90.9326 159.734 91.8848 160.096 93.1055 160.096C94.541 160.096 95.5908 159.607 96.2549 158.631C96.9287 157.654 97.2656 156.248 97.2656 154.412V149.52Z" fill="black"/>
<path d="M111.489 161.37C111.489 161.829 111.431 162.308 111.313 162.806C111.206 163.313 111.04 163.812 110.815 164.3C110.601 164.798 110.337 165.271 110.024 165.721C109.712 166.17 109.351 166.57 108.94 166.922L107.256 165.999C107.725 165.315 108.057 164.588 108.252 163.816C108.447 163.045 108.545 162.244 108.545 161.414V158.792H111.489V161.37Z" fill="black"/>
<path d="M125.552 159.598C126.519 159.598 127.368 159.515 128.101 159.349C128.833 159.173 129.468 158.929 130.005 158.616C130.552 158.304 131.006 157.938 131.367 157.518C131.729 157.088 132.021 156.619 132.246 156.111C132.48 155.594 132.651 155.052 132.759 154.485C132.866 153.909 132.935 153.323 132.964 152.728C132.729 153.021 132.461 153.299 132.158 153.562C131.855 153.816 131.514 154.041 131.133 154.236C130.752 154.432 130.327 154.588 129.858 154.705C129.399 154.812 128.896 154.866 128.35 154.866C127.295 154.866 126.382 154.661 125.61 154.251C124.849 153.831 124.219 153.284 123.721 152.61C123.223 151.937 122.856 151.175 122.622 150.325C122.388 149.476 122.271 148.621 122.271 147.762C122.271 146.756 122.407 145.809 122.681 144.92C122.964 144.021 123.379 143.24 123.926 142.576C124.482 141.902 125.171 141.37 125.991 140.979C126.821 140.579 127.783 140.379 128.877 140.379C129.697 140.379 130.435 140.496 131.089 140.73C131.753 140.955 132.334 141.272 132.832 141.683C133.34 142.083 133.774 142.562 134.136 143.118C134.497 143.665 134.79 144.261 135.015 144.905C135.249 145.54 135.42 146.209 135.527 146.912C135.635 147.605 135.688 148.304 135.688 149.007V149.988C135.688 150.896 135.645 151.829 135.557 152.786C135.469 153.733 135.293 154.651 135.029 155.54C134.775 156.429 134.414 157.269 133.945 158.06C133.477 158.841 132.866 159.524 132.114 160.11C131.362 160.696 130.449 161.16 129.375 161.502C128.301 161.844 127.026 162.015 125.552 162.015H125.273V159.598H125.552ZM128.789 152.625C129.248 152.625 129.692 152.552 130.122 152.405C130.562 152.249 130.962 152.034 131.323 151.761C131.694 151.478 132.021 151.15 132.305 150.779C132.598 150.398 132.827 149.979 132.993 149.52V148.641C132.993 147.693 132.881 146.849 132.656 146.106C132.441 145.364 132.144 144.739 131.763 144.231C131.392 143.714 130.957 143.318 130.459 143.045C129.971 142.771 129.448 142.635 128.892 142.635C128.257 142.635 127.695 142.762 127.207 143.016C126.719 143.27 126.304 143.621 125.962 144.07C125.63 144.51 125.376 145.037 125.2 145.652C125.024 146.258 124.937 146.912 124.937 147.615C124.937 148.24 125.015 148.855 125.171 149.461C125.327 150.057 125.562 150.589 125.874 151.058C126.196 151.526 126.597 151.907 127.075 152.2C127.563 152.483 128.135 152.625 128.789 152.625Z" fill="black"/>
<path d="M154.043 153.841C154.043 155.198 153.887 156.404 153.574 157.459C153.262 158.504 152.812 159.388 152.227 160.11C151.641 160.823 150.923 161.365 150.073 161.736C149.224 162.107 148.252 162.293 147.158 162.293C146.074 162.293 145.103 162.107 144.243 161.736C143.394 161.365 142.671 160.823 142.075 160.11C141.479 159.388 141.021 158.504 140.698 157.459C140.386 156.404 140.229 155.198 140.229 153.841V148.846C140.229 147.488 140.386 146.287 140.698 145.242C141.011 144.188 141.46 143.299 142.046 142.576C142.642 141.854 143.364 141.307 144.214 140.936C145.073 140.555 146.045 140.364 147.129 140.364C148.223 140.364 149.194 140.555 150.044 140.936C150.903 141.307 151.626 141.854 152.212 142.576C152.808 143.299 153.262 144.188 153.574 145.242C153.887 146.287 154.043 147.488 154.043 148.846V153.841ZM142.954 153.299L151.26 146.927C151.104 145.511 150.688 144.437 150.015 143.704C149.351 142.962 148.389 142.591 147.129 142.591C145.703 142.591 144.648 143.074 143.965 144.041C143.291 144.998 142.954 146.399 142.954 148.245V153.299ZM151.318 149.52L143.027 155.862C143.193 157.239 143.618 158.289 144.302 159.012C144.985 159.734 145.938 160.096 147.158 160.096C148.594 160.096 149.644 159.607 150.308 158.631C150.981 157.654 151.318 156.248 151.318 154.412V149.52Z" fill="black"/>
<path d="M172.061 153.841C172.061 155.198 171.904 156.404 171.592 157.459C171.279 158.504 170.83 159.388 170.244 160.11C169.658 160.823 168.94 161.365 168.091 161.736C167.241 162.107 166.27 162.293 165.176 162.293C164.092 162.293 163.12 162.107 162.261 161.736C161.411 161.365 160.688 160.823 160.093 160.11C159.497 159.388 159.038 158.504 158.716 157.459C158.403 156.404 158.247 155.198 158.247 153.841V148.846C158.247 147.488 158.403 146.287 158.716 145.242C159.028 144.188 159.478 143.299 160.063 142.576C160.659 141.854 161.382 141.307 162.231 140.936C163.091 140.555 164.062 140.364 165.146 140.364C166.24 140.364 167.212 140.555 168.062 140.936C168.921 141.307 169.644 141.854 170.229 142.576C170.825 143.299 171.279 144.188 171.592 145.242C171.904 146.287 172.061 147.488 172.061 148.846V153.841ZM160.972 153.299L169.277 146.927C169.121 145.511 168.706 144.437 168.032 143.704C167.368 142.962 166.406 142.591 165.146 142.591C163.721 142.591 162.666 143.074 161.982 144.041C161.309 144.998 160.972 146.399 160.972 148.245V153.299ZM169.336 149.52L161.045 155.862C161.211 157.239 161.636 158.289 162.319 159.012C163.003 159.734 163.955 160.096 165.176 160.096C166.611 160.096 167.661 159.607 168.325 158.631C168.999 157.654 169.336 156.248 169.336 154.412V149.52Z" fill="black"/>
<path d="M181.406 160.242C181.406 159.949 181.45 159.676 181.538 159.422C181.636 159.168 181.772 158.948 181.948 158.763C182.124 158.567 182.344 158.416 182.607 158.309C182.871 158.201 183.179 158.147 183.53 158.147C183.882 158.147 184.189 158.201 184.453 158.309C184.727 158.416 184.951 158.567 185.127 158.763C185.312 158.948 185.449 159.168 185.537 159.422C185.635 159.676 185.684 159.949 185.684 160.242C185.684 160.525 185.635 160.794 185.537 161.048C185.449 161.292 185.312 161.507 185.127 161.692C184.951 161.878 184.727 162.02 184.453 162.117C184.189 162.225 183.882 162.278 183.53 162.278C183.179 162.278 182.871 162.225 182.607 162.117C182.344 162.02 182.124 161.878 181.948 161.692C181.772 161.507 181.636 161.292 181.538 161.048C181.45 160.794 181.406 160.525 181.406 160.242Z" fill="black"/>
<path d="M208.096 153.841C208.096 155.198 207.939 156.404 207.627 157.459C207.314 158.504 206.865 159.388 206.279 160.11C205.693 160.823 204.976 161.365 204.126 161.736C203.276 162.107 202.305 162.293 201.211 162.293C200.127 162.293 199.155 162.107 198.296 161.736C197.446 161.365 196.724 160.823 196.128 160.11C195.532 159.388 195.073 158.504 194.751 157.459C194.438 156.404 194.282 155.198 194.282 153.841V148.846C194.282 147.488 194.438 146.287 194.751 145.242C195.063 144.188 195.513 143.299 196.099 142.576C196.694 141.854 197.417 141.307 198.267 140.936C199.126 140.555 200.098 140.364 201.182 140.364C202.275 140.364 203.247 140.555 204.097 140.936C204.956 141.307 205.679 141.854 206.265 142.576C206.86 143.299 207.314 144.188 207.627 145.242C207.939 146.287 208.096 147.488 208.096 148.846V153.841ZM197.007 153.299L205.312 146.927C205.156 145.511 204.741 144.437 204.067 143.704C203.403 142.962 202.441 142.591 201.182 142.591C199.756 142.591 198.701 143.074 198.018 144.041C197.344 144.998 197.007 146.399 197.007 148.245V153.299ZM205.371 149.52L197.08 155.862C197.246 157.239 197.671 158.289 198.354 159.012C199.038 159.734 199.99 160.096 201.211 160.096C202.646 160.096 203.696 159.607 204.36 158.631C205.034 157.654 205.371 156.248 205.371 154.412V149.52Z" fill="black"/>
<path d="M226.113 153.841C226.113 155.198 225.957 156.404 225.645 157.459C225.332 158.504 224.883 159.388 224.297 160.11C223.711 160.823 222.993 161.365 222.144 161.736C221.294 162.107 220.322 162.293 219.229 162.293C218.145 162.293 217.173 162.107 216.313 161.736C215.464 161.365 214.741 160.823 214.146 160.11C213.55 159.388 213.091 158.504 212.769 157.459C212.456 156.404 212.3 155.198 212.3 153.841V148.846C212.3 147.488 212.456 146.287 212.769 145.242C213.081 144.188 213.53 143.299 214.116 142.576C214.712 141.854 215.435 141.307 216.284 140.936C217.144 140.555 218.115 140.364 219.199 140.364C220.293 140.364 221.265 140.555 222.114 140.936C222.974 141.307 223.696 141.854 224.282 142.576C224.878 143.299 225.332 144.188 225.645 145.242C225.957 146.287 226.113 147.488 226.113 148.846V153.841ZM215.024 153.299L223.33 146.927C223.174 145.511 222.759 144.437 222.085 143.704C221.421 142.962 220.459 142.591 219.199 142.591C217.773 142.591 216.719 143.074 216.035 144.041C215.361 144.998 215.024 146.399 215.024 148.245V153.299ZM223.389 149.52L215.098 155.862C215.264 157.239 215.688 158.289 216.372 159.012C217.056 159.734 218.008 160.096 219.229 160.096C220.664 160.096 221.714 159.607 222.378 158.631C223.052 157.654 223.389 156.248 223.389 154.412V149.52Z" fill="black"/>
<path d="M302.523 29.9375H308.887C310.191 29.9375 311.312 30.1328 312.25 30.5234C313.195 30.9141 313.922 31.4922 314.43 32.2578C314.938 33.0234 315.191 33.9648 315.191 35.082C315.191 35.9961 315.035 36.7812 314.723 37.4375C314.418 38.0859 313.984 38.6289 313.422 39.0664C312.867 39.4961 312.215 39.8398 311.465 40.0977L310.352 40.6836H304.82L304.797 37.9414H308.91C309.527 37.9414 310.039 37.832 310.445 37.6133C310.852 37.3945 311.156 37.0898 311.359 36.6992C311.57 36.3086 311.676 35.8555 311.676 35.3398C311.676 34.793 311.574 34.3203 311.371 33.9219C311.168 33.5234 310.859 33.2188 310.445 33.0078C310.031 32.7969 309.512 32.6914 308.887 32.6914H306.039V47H302.523V29.9375ZM312.062 47L308.172 39.3945L311.887 39.3711L315.824 46.8359V47H312.062ZM330.548 44.2578V47H321.466V44.2578H330.548ZM322.614 29.9375V47H319.098V29.9375H322.614ZM329.364 36.8867V39.5586H321.466V36.8867H329.364ZM330.536 29.9375V32.6914H321.466V29.9375H330.536ZM340.478 39.5117H336.095L336.072 37.0977H339.752C340.4 37.0977 340.931 37.0156 341.345 36.8516C341.759 36.6797 342.068 36.4336 342.271 36.1133C342.482 35.7852 342.587 35.3867 342.587 34.918C342.587 34.3867 342.486 33.957 342.283 33.6289C342.087 33.3008 341.779 33.0625 341.357 32.9141C340.943 32.7656 340.408 32.6914 339.752 32.6914H337.314V47H333.798V29.9375H339.752C340.744 29.9375 341.63 30.0312 342.412 30.2188C343.201 30.4062 343.869 30.6914 344.416 31.0742C344.962 31.457 345.38 31.9414 345.67 32.5273C345.959 33.1055 346.103 33.793 346.103 34.5898C346.103 35.293 345.943 35.9414 345.623 36.5352C345.31 37.1289 344.814 37.6133 344.134 37.9883C343.462 38.3633 342.584 38.5703 341.498 38.6094L340.478 39.5117ZM340.326 47H335.134L336.505 44.2578H340.326C340.943 44.2578 341.447 44.1602 341.837 43.9648C342.228 43.7617 342.517 43.4883 342.705 43.1445C342.892 42.8008 342.986 42.4062 342.986 41.9609C342.986 41.4609 342.9 41.0273 342.728 40.6602C342.564 40.293 342.298 40.0117 341.931 39.8164C341.564 39.6133 341.08 39.5117 340.478 39.5117H337.091L337.115 37.0977H341.334L342.142 38.0469C343.181 38.0312 344.017 38.2148 344.65 38.5977C345.291 38.9727 345.755 39.4609 346.045 40.0625C346.341 40.6641 346.49 41.3086 346.49 41.9961C346.49 43.0898 346.252 44.0117 345.775 44.7617C345.298 45.5039 344.599 46.0625 343.677 46.4375C342.763 46.8125 341.646 47 340.326 47ZM357.264 32.8555L352.623 47H348.885L355.225 29.9375H357.604L357.264 32.8555ZM361.12 47L356.467 32.8555L356.092 29.9375H358.495L364.87 47H361.12ZM360.909 40.6484V43.4023H351.897V40.6484H360.909ZM381.538 29.9375V47H378.023L371.167 35.5625V47H367.652V29.9375H371.167L378.034 41.3867V29.9375H381.538ZM389.312 29.9375V47H385.797V29.9375H389.312ZM399.531 29.9375L392.77 38.3633L388.867 42.5586L388.234 39.2305L390.871 35.6211L395.219 29.9375H399.531ZM395.535 47L390.508 39.1133L393.109 36.9336L399.695 47H395.535Z" fill="black"/>
</g>
</g>
<defs>
<filter id="filter0_d_0_283" x="-4" y="0" width="429.468" height="278.467" filterUnits="userSpaceOnUse" color-interpolation-filters="sRGB">
<feFlood flood-opacity="0" result="BackgroundImageFix"/>
<feColorMatrix in="SourceAlpha" type="matrix" values="0 0 0 0 0 0 0 0 0 0 0 0 0 0 0 0 0 0 127 0" result="hardAlpha"/>
<feOffset dy="4"/>
<feGaussianBlur stdDeviation="2"/>
<feComposite in2="hardAlpha" operator="out"/>
<feColorMatrix type="matrix" values="0 0 0 0 0 0 0 0 0 0 0 0 0 0 0 0 0 0 0.25 0"/>
<feBlend mode="normal" in2="BackgroundImageFix" result="effect1_dropShadow_0_283"/>
<feBlend mode="normal" in="SourceGraphic" in2="effect1_dropShadow_0_283" result="shape"/>
</filter>
<clipPath id="clip0_0_283">
<rect width="421" height="270" rx="20" fill="white"/>
</clipPath>
</defs>
</svg>
