<svg width="20" height="20" viewBox="0 0 20 20" fill="none" xmlns="http://www.w3.org/2000/svg">
<path d="M17.6992 10.7098L11.5824 16.7093C11.3885 16.8954 11.1278 17 10.8604 17C10.5897 17 10.329 16.8954 10.1351 16.7093C10.0415 16.6162 9.96464 16.5061 9.9145 16.3845C9.86436 16.2629 9.83764 16.1324 9.83764 16.001C9.83764 15.8693 9.86436 15.7391 9.9145 15.6175C9.96464 15.4959 10.0415 15.3855 10.1351 15.2927L14.5138 11.0011H2.02281C1.75206 11.0011 1.49139 10.8959 1.30086 10.7084C1.11034 10.521 1 10.2666 1 10.0015C1 9.73599 1.11034 9.48167 1.30086 9.29419C1.49139 9.10672 1.75206 9.0015 2.02281 9.0015H14.5138L10.1351 4.7099C9.94456 4.52209 9.83764 4.26743 9.83764 4.00163C9.83764 3.8702 9.86436 3.74007 9.9145 3.61848C9.96798 3.49688 10.0415 3.38642 10.1351 3.29334C10.232 3.20059 10.3457 3.12684 10.4694 3.07637C10.593 3.02589 10.7234 3 10.8604 3C11.1312 3 11.3885 3.10554 11.5824 3.29334L17.6992 9.2932C17.7961 9.38596 17.8697 9.49642 17.9231 9.61801C17.9733 9.73928 18 9.86972 18 10.0015C18 10.1329 17.9733 10.2634 17.9231 10.3849C17.8697 10.5062 17.7961 10.6167 17.6992 10.7098Z" fill="#020201"/>
</svg>
