<svg width="186" height="31" viewBox="0 0 186 31" fill="none" xmlns="http://www.w3.org/2000/svg">
<path d="M0 0.9375H11.2004C13.4969 0.9375 15.4702 1.28091 17.1204 1.96772C18.7843 2.65453 20.0631 3.67102 20.957 5.01717C21.8508 6.36332 22.2977 8.01854 22.2977 9.98283C22.2977 11.59 22.0227 12.9705 21.4726 14.1243C20.9363 15.2644 20.1731 16.2191 19.1831 16.9883C18.2067 17.7438 17.0585 18.3482 15.7384 18.8015L13.7788 19.8317H4.04288L4.00163 15.0103H11.2417C12.328 15.0103 13.2287 14.818 13.9438 14.4334C14.6589 14.0488 15.1952 13.513 15.5527 12.8262C15.924 12.1394 16.1096 11.3427 16.1096 10.4361C16.1096 9.47459 15.9309 8.64354 15.5733 7.94299C15.2158 7.24244 14.6726 6.70673 13.9438 6.33585C13.215 5.96497 12.3005 5.77953 11.2004 5.77953H6.18808V30.9375H0V0.9375ZM16.7903 30.9375L9.94219 17.5652L16.4809 17.524L23.4116 30.649V30.9375H16.7903Z" fill="black"/>
<path d="M49.3273 26.1161V30.9375H33.3414V26.1161H49.3273ZM35.3628 0.9375V30.9375H29.1747V0.9375H35.3628ZM47.2439 13.1559V17.8537H33.3414V13.1559H47.2439ZM49.3066 0.9375V5.77953H33.3414V0.9375H49.3066Z" fill="black"/>
<path d="M66.8065 17.7713H59.0921L59.0508 13.5268H65.5277C66.669 13.5268 67.6041 13.3826 68.3329 13.0941C69.0618 12.7919 69.6049 12.3592 69.9625 11.796C70.3337 11.2191 70.5194 10.5185 70.5194 9.69437C70.5194 8.7603 70.3406 8.00481 69.9831 7.42788C69.6393 6.85096 69.0961 6.43201 68.3536 6.17102C67.6247 5.91003 66.6828 5.77953 65.5277 5.77953H61.2373V30.9375H55.0492V0.9375H65.5277C67.2741 0.9375 68.8349 1.10234 70.21 1.43201C71.5989 1.76168 72.7746 2.26305 73.7372 2.93613C74.6998 3.6092 75.4355 4.46085 75.9443 5.49107C76.4531 6.50756 76.7075 7.71635 76.7075 9.11744C76.7075 10.3537 76.4256 11.4938 75.8618 12.5378C75.3117 13.5817 74.4385 14.4334 73.2421 15.0927C72.0595 15.7521 70.5125 16.1161 68.6011 16.1848L66.8065 17.7713ZM66.5384 30.9375H57.4007L59.814 26.1161H66.5384C67.6247 26.1161 68.5117 25.9444 69.1993 25.601C69.8868 25.2438 70.3956 24.7631 70.7257 24.1587C71.0557 23.5543 71.2207 22.8606 71.2207 22.0776C71.2207 21.1985 71.0694 20.4361 70.7669 19.7905C70.4781 19.1449 70.0106 18.6504 69.3643 18.307C68.718 17.9499 67.8654 17.7713 66.8065 17.7713H60.8454L60.8866 13.5268H68.3123L69.7356 15.1957C71.5645 15.1683 73.0359 15.4911 74.1497 16.1641C75.2773 16.8235 76.0955 17.682 76.6043 18.7397C77.1269 19.7974 77.3882 20.9306 77.3882 22.1394C77.3882 24.0625 76.9687 25.6834 76.1299 27.0021C75.2911 28.307 74.0603 29.2891 72.4377 29.9485C70.8288 30.6078 68.8624 30.9375 66.5384 30.9375Z" fill="black"/>
<path d="M96.3526 6.06799L88.1843 30.9375H81.6043L92.7635 0.9375H96.9507L96.3526 6.06799ZM103.139 30.9375L94.9499 6.06799L94.2899 0.9375H98.5184L109.739 30.9375H103.139ZM102.768 19.7699V24.6119H86.9054V19.7699H102.768Z" fill="black"/>
<path d="M139.079 0.9375V30.9375H132.891L120.824 10.8276V30.9375H114.636V0.9375H120.824L132.912 21.068V0.9375H139.079Z" fill="black"/>
<path d="M152.763 0.9375V30.9375H146.575V0.9375H152.763ZM170.75 0.9375L158.848 15.7521L151.979 23.1284L150.865 17.2768L155.507 10.9306L163.159 0.9375H170.75ZM163.716 30.9375L154.867 17.0707L159.446 13.2383L171.039 30.9375H163.716Z" fill="black"/>
<path d="M185.711 0.9375L173.809 15.7521L171.575 19.8075L168.055 14.2342L170.468 10.9306L178.121 0.9375H185.711ZM178.677 30.9375L169.828 17.0707L174.408 13.2383L186 30.9375H178.677Z" fill="black"/>
</svg>
